<svg xmlns="http://www.w3.org/2000/svg" version="1.1" xmlns:xlink="http://www.w3.org/1999/xlink" xmlns:svgjs="http://svgjs.dev/svgjs" width="100%" height="100%" viewBox="0 0 1000 600"><rect width="1000" height="600" x="0" y="0" fill="transparent"/><g><rect width="333.3333333333333" height="333.3333333333333" rx="13.333333333333334" ry="13.333333333333334" y="217.72090706097322" fill="hsl(185, 57%, 50%)" transform="matrix(0.6393905028020264,0,0,0.6393905028020263,0,54.22623283475025)" x="195.498779296875"/><path d="M358.43321535783844 459.38757122701395Q348.207185577333 459.38757122701395 340.1138571949009 457.61032006195285Q332.04787113808516 455.8604112225081 322.3960301955226 452.907440055945L322.3960301955226 452.907440055945Q316.4900878623964 450.7200540066391 313.5371166958334 450.5286577273248L313.5371166958334 450.5286577273248L315.12297158158026 414.9016074492538L327.7277836907059 414.9016074492538L331.06354741589746 440.49402422613366Q334.4266534667054 443.638391672011 342.00047766242733 446.0992009774802Q349.5743018581493 448.5600102829494 358.6246116371527 448.5600102829494L358.6246116371527 448.5600102829494Q373.5808637492823 448.5600102829494 381.3734265499348 441.8611405069499Q389.13864702497096 435.18961305656666 389.13864702497096 423.3777283903144L389.13864702497096 423.3777283903144Q389.13864702497096 415.6945348921272 384.9005865544407 410.17138511762965Q380.6898684095267 404.67557766874836 373.69023305174755 400.7382827799977Q366.69059769396847 396.8009878912469 354.49592046908765 391.4692343960636L354.49592046908765 391.4692343960636Q343.4769632457089 386.5476157851252 335.3016078864278 381.43460089487246Q327.12625252714673 376.32158600461975 321.13828321717165 367.76343808671015Q315.12297158158026 359.1779478431842 315.12297158158026 347.1746668976177L315.12297158158026 347.1746668976177Q315.12297158158026 336.3471059535532 320.91954461224105 327.78895803564353Q326.7434599685182 319.23081011773394 337.6530478894317 314.3091915067955Q348.5899781359616 309.3875728958571 363.16343768946257 309.3875728958571L363.16343768946257 309.3875728958571Q372.21374746846607 309.3875728958571 379.21338282624515 310.7546891766733Q386.18567585840793 312.14914778310583 395.04458935809714 314.5005877861098L395.04458935809714 314.5005877861098Q398.9818842468478 315.86770406692597 401.7434591340966 316.2778389511709L401.7434591340966 316.2778389511709L400.5677391325947 349.33471062130735L388.56445818702815 349.33471062130735L384.6271632982774 325.13675245086006Q382.65851585390203 323.16810500648467 376.45180793899635 321.39085384142356Q370.2451000240907 319.61360267636246 362.97204141014834 319.61360267636246L362.97204141014834 319.61360267636246Q349.382905578835 319.61360267636246 342.3832702210559 325.32814873017435Q335.41097718889307 331.0426947839862 335.41097718889307 341.8702557280507L335.41097718889307 341.8702557280507Q335.41097718889307 349.74484550555223 339.6216953338071 355.0492566751192Q343.8597558043374 360.3810101703025 350.1758330217084 364.0995664541226Q356.46456791346304 367.8454650635591 370.2451000240907 374.3529385602444L370.2451000240907 374.3529385602444Q383.0413084125306 380.45027717268476 391.10729446934636 385.3718957836232Q399.1732805261621 390.2935143945616 404.99719588243926 398.2774734745284Q410.79376891310005 406.23409022887887 410.79376891310005 417.2530474522577L410.79376891310005 417.2530474522577Q410.79376891310005 427.6978158376937 404.99719588243926 437.34965678025634Q399.1732805261621 447.0014977228189 387.2793688830609 453.1808633121083Q375.35811491434333 459.38757122701395 358.43321535783844 459.38757122701395L358.43321535783844 459.38757122701395Z " fill="hsl(184, 91%, 17%)" transform="matrix(0.6393905028020264,0,0,0.6393905028020263,0,54.22623283475025)"/><path d="M653.3803010848517 459.38756761757105Q643.9927512196236 459.38756761757105 636.5630326097105 457.7560415714753Q629.1584144005066 456.14961592608864 620.297972950171 453.4387726494987L620.297972950171 453.4387726494987Q614.8762863969912 451.43074059276546 612.1654431204013 451.25503778780126L612.1654431204013 451.25503778780126L613.6212663615329 418.549215663758L625.1925510884583 418.549215663758L628.2547999749765 442.04319072753736Q631.342149262204 444.9297368090914 638.294960258643 447.1887728729164Q645.247771255082 449.44780893674135 653.5560038898159 449.44780893674135L653.5560038898159 449.44780893674135Q667.2859230777296 449.44780893674135 674.4395372798419 443.2982107629956Q681.5680510812451 437.17371298995914 681.5680510812451 426.33033988359944L681.5680510812451 426.33033988359944Q681.5680510812451 419.2771272843238 677.6774889713245 414.20684634107226Q673.8120272621129 409.1616657985299 667.3863246805663 405.54720809641003Q660.9606220990199 401.9327503942901 649.7658433827319 397.0381722560027L649.7658433827319 397.0381722560027Q639.6503818969379 392.52010012835285 632.1453620848973 387.82632519573883Q624.6403422728567 383.1325502631248 619.1433545175494 375.2761248411558Q613.6212663615329 367.3945990184777 613.6212663615329 356.37552310715387L613.6212663615329 356.37552310715387Q613.6212663615329 346.4357644263241 618.9425513118761 338.5793390043551Q624.2889366629283 330.72291358238624 634.3039965458856 326.2048414547363Q644.344156829552 321.6867693270865 657.7226704075374 321.6867693270865L657.7226704075374 321.6867693270865Q666.0309030422713 321.6867693270865 672.456605623818 322.94178936254474Q678.8572078046552 324.2219097987122 686.989737634425 326.3805442597005L686.989737634425 326.3805442597005Q690.6041953365449 327.6355642951588 693.1393358081707 328.0120703057963L693.1393358081707 328.0120703057963L692.0600185776766 358.358454763178L681.0409426663526 358.358454763178L677.4264849642327 336.14460013556607Q675.6192561131728 334.3373712845061 669.9214651521921 332.70584523841035Q664.2236741912114 331.07431919231453 657.5469676025733 331.07431919231453L657.5469676025733 331.07431919231453Q645.0720684501177 331.07431919231453 638.6463658685714 336.3203029405302Q632.245763687734 341.5662866887459 632.245763687734 351.50604536957565L632.245763687734 351.50604536957565Q632.245763687734 358.73496077381543 636.1112253969455 363.60443851139365Q640.0017875068663 368.49901664968104 645.7999800706837 371.9126711461276Q651.5730722337918 375.35142604328337 664.2236741912114 381.32532141206485L664.2236741912114 381.32532141206485Q675.9706617231011 386.9227107702088 683.3752799323051 391.44078289785875Q690.7798981415091 395.95885502550857 696.1262834925615 403.28817203258507Q701.4475684429046 410.59238863895234 701.4475684429046 420.7078501247463L701.4475684429046 420.7078501247463Q701.4475684429046 430.29620319564765 696.1262834925615 439.1566446459833Q690.7798981415091 448.01708609631885 679.8612238330219 453.68977665659037Q668.9174491238255 459.38756761757105 653.3803010848517 459.38756761757105L653.3803010848517 459.38756761757105ZM716.8090136769142 457.40463596154694L716.8090136769142 448.54419451121134L730.3632300598638 447.46487728071725L730.3632300598638 371.0090567205976L717.3612224925158 367.77110502911523L717.3612224925158 358.0070491532496L742.2859203967176 354.74399706105805L742.6624264073552 354.74399706105805L746.6282897194034 358.0070491532496L746.6282897194034 361.2701012454412L746.1011813045109 375.35142604328337L746.6282897194034 375.35142604328337Q748.4355185704633 372.2891771567651 753.1292935030774 367.3945990184777Q757.8481688364005 362.5251212808995 765.2527870456046 358.45885636601463Q772.6574052548085 354.39259145112976 781.34214390018 354.39259145112976L781.34214390018 354.39259145112976Q784.9566016022998 354.39259145112976 787.2909388682523 355.2962058766597L787.2909388682523 355.2962058766597L787.2909388682523 375.5271288482475Q786.035918832794 374.6235144227175 783.2246739533674 373.8203016000242Q780.43852947465 373.0170887773309 776.9997745774942 373.0170887773309L776.9997745774942 373.0170887773309Q761.989734953413 373.0170887773309 749.1634301910292 382.2289358375948L749.1634301910292 382.2289358375948L749.1634301910292 447.28917447575304L772.1051964392069 448.7198973161755L772.1051964392069 457.40463596154694L716.8090136769142 457.40463596154694ZM820.5489698078972 339.0311462171202Q814.775877644789 339.0311462171202 811.8642311625258 335.76809412492855Q808.9776850809717 332.53014243344614 808.9776850809717 327.4598614901946L808.9776850809717 327.4598614901946Q808.9776850809717 321.6867693270865 812.5168415809641 317.89660882000237Q816.0308976802473 314.08134791220914 822.180495853993 314.08134791220914L822.180495853993 314.08134791220914Q828.3300940277386 314.08134791220914 831.2166401092927 317.34440000440077Q834.1031861908468 320.6074520965923 834.1031861908468 325.6526326391347L834.1031861908468 325.6526326391347Q834.1031861908468 331.80223081288034 830.5891300915636 335.41668851500026Q827.0499735915712 339.0311462171202 820.7246726128614 339.0311462171202L820.7246726128614 339.0311462171202L820.5489698078972 339.0311462171202ZM813.3200544036574 446.91266846511553L813.3200544036574 371.0090567205976L799.5901352157437 367.77110502911523L799.5901352157437 358.18275195821377L827.6021824071729 354.74399706105805L827.9535880171012 354.74399706105805L832.1202545348227 358.0070491532496L832.1202545348227 447.11347167078884L846.5780853433023 448.54419451121134L846.5780853433023 457.40463596154694L798.6865207902136 457.40463596154694L798.6865207902136 448.54419451121134L813.3200544036574 446.91266846511553ZM868.9927431765875 446.91266846511553L868.9927431765875 322.59038375261645L854.8863179780362 320.6074520965923L854.8863179780362 312.82632787675084L883.6262767900313 309.3875729795951L883.8019795949955 309.3875729795951L887.7678429070437 312.09841625618503L887.7678429070437 400.4769271531585L887.4164372971154 411.14459745455406L929.1584036764584 367.9468078340794L915.6041872935087 365.4116673624536L915.6041872935087 357.1034347277197L959.3541857295851 357.1034347277197L959.3541857295851 365.4116673624536L945.0720577260696 367.9468078340794L918.4907333750629 393.8002205645203L952.8280815452019 447.11347167078884L964.0479606621991 448.54419451121134L964.0479606621991 457.40463596154694L920.1222594211587 457.40463596154694L920.1222594211587 448.54419451121134L931.5178413431199 446.91266846511553L906.0409346233166 404.9949992808084L887.4164372971154 423.4186934013362L887.7678429070437 432.65564086230927L887.7678429070437 446.91266846511553L900.6192480701367 448.54419451121134L900.6192480701367 457.40463596154694L857.5971612546261 457.40463596154694L857.5971612546261 448.54419451121134L868.9927431765875 446.91266846511553ZM967.8381211692831 430.29620319564765Q967.8381211692831 413.3032319155423 984.8310924493885 405.2711036886092Q1001.8240637294939 397.21387506096687 1027.8280788641898 396.68676664607443L1027.8280788641898 396.68676664607443L1027.8280788641898 391.6164857028229Q1027.8280788641898 383.1325502631248 1026.0208500131298 378.2379721248374Q1024.21362116207 373.3684943872592 1019.7959506372567 371.1094583234343Q1015.3782801124436 368.85042225960933 1007.2457502826737 368.85042225960933L1007.2457502826737 368.85042225960933Q998.0088028217008 368.85042225960933 990.7045862153334 371.4608639333626Q983.3752692082569 374.09640600782507 976.146353804017 377.8865665149091L976.146353804017 377.8865665149091L971.6282816763672 368.49901664968104Q973.9877193430289 366.4909845929477 980.3130203217386 363.2530329014653Q986.6383213004485 359.98998080927373 994.9465539351825 357.45484033764797Q1003.2547865699164 354.94480026673136 1011.5630192046503 354.94480026673136L1011.5630192046503 354.94480026673136Q1024.4144243677433 354.94480026673136 1031.8943437790747 358.45885636601463Q1039.3993635911154 361.97291246529784 1042.662415683307 369.75403668513934Q1045.9003673747893 377.5351609049808 1045.9003673747893 390.53716847232874L1045.9003673747893 390.53716847232874L1045.9003673747893 448.54419451121134L1056.5680376761848 448.54419451121134L1056.5680376761848 456.501021536017Q1052.9535799740652 457.40463596154694 1047.4565922187576 458.3082503870769Q1041.934504062741 459.2118648126069 1037.7678375450196 459.2118648126069L1037.7678375450196 459.2118648126069Q1032.7226570024773 459.2118648126069 1030.9154281514172 457.68074036934775Q1029.1081993003572 456.14961592608864 1029.1081993003572 450.90363217787296L1029.1081993003572 450.90363217787296L1029.1081993003572 444.9297368090914Q1023.6865127471775 450.3514233622713 1015.8300873252085 454.8694954899212Q1007.9485615025303 459.38756761757105 998.0088028217008 459.38756761757105L998.0088028217008 459.38756761757105Q985.0067952543527 459.38756761757105 976.4224582118179 451.8825478055304Q967.8381211692831 444.4026283941989 967.8381211692831 430.29620319564765L967.8381211692831 430.29620319564765ZM1005.7899270415421 447.11347167078884Q1010.4837019741562 447.11347167078884 1016.6333001479019 444.2018251885256Q1022.7828983216475 441.31527910697156 1027.8280788641898 437.3494157949233L1027.8280788641898 437.3494157949233L1027.8280788641898 406.2500193162667Q1008.1493647082037 406.2500193162667 998.1092044245373 412.3243162878848Q988.069044140871 418.37351285879384 988.069044140871 428.1375687346594L988.069044140871 428.1375687346594Q988.069044140871 437.8765242098158 992.8632206763216 442.49499794030237Q997.6573972117724 447.11347167078884 1005.7899270415421 447.11347167078884L1005.7899270415421 447.11347167078884ZM1080.0620127399643 446.91266846511553L1080.0620127399643 371.0090567205976L1067.0600051726165 367.77110502911523L1067.0600051726165 358.0070491532496L1092.888317502348 354.74399706105805L1093.4405263179497 354.74399706105805L1097.230686825034 358.0070491532496L1097.230686825034 365.58737016741776L1097.0549840200697 369.9297394901035Q1103.5559878037436 364.1566473269953 1114.2236581051393 359.46287239438124Q1124.8913284065347 354.74399706105805 1134.6553842824005 354.74399706105805L1134.6553842824005 354.74399706105805Q1146.0258658036526 354.74399706105805 1152.2758655802347 359.0863663837438Q1158.500764956108 363.4287357064295 1161.0359054277337 372.3644783588926Q1163.5710458993594 381.32532141206485 1163.5710458993594 396.51106384111023L1163.5710458993594 396.51106384111023L1163.5710458993594 447.11347167078884L1176.2216478567793 448.36849170624714L1176.2216478567793 457.40463596154694L1133.3752638462329 457.40463596154694L1133.3752638462329 448.54419451121134L1144.59514296323 447.11347167078884L1144.59514296323 396.3102606354369Q1144.59514296323 385.6676907347505 1143.1393197220984 379.5933937631324Q1141.6834964809668 373.5441971922234 1137.7176331689186 370.55724950783264Q1133.7517698568704 367.59540222415103 1126.1463484419928 367.59540222415103L1126.1463484419928 367.59540222415103Q1119.6453446583191 367.59540222415103 1112.240726449115 370.83335391563344Q1104.8361082399113 374.09640600782507 1099.0379156760937 378.43877533051074L1099.0379156760937 378.43877533051074L1099.0379156760937 446.91266846511553L1111.3371120235852 448.54419451121134L1111.3371120235852 457.40463596154694L1068.691531218712 457.40463596154694L1068.691531218712 448.54419451121134L1080.0620127399643 446.91266846511553ZM1220.1222486971103 459.2118648126069Q1209.8310844063526 459.2118648126069 1204.760803463101 454.5180898799929Q1199.7156229205584 449.8243149473788 1199.7156229205584 438.42873302541744L1199.7156229205584 438.42873302541744L1199.7156229205584 369.02612506457353L1186.6885149525015 369.02612506457353L1186.6885149525015 360.89359523480374Q1187.5921293780314 360.71789242983954 1191.7587958957529 359.63857519934544Q1195.9003620127653 358.5592579688513 1197.356185253897 357.6556435433213L1197.356185253897 357.6556435433213Q1200.242731335451 356.0241174972255 1201.8742573815468 351.12953935893813L1201.8742573815468 351.12953935893813Q1203.3300806226785 347.7158848624916 1205.3130122787024 340.1104634476143Q1207.2959439347267 332.53014243344614 1207.6473495446548 331.07431919231453L1207.6473495446548 331.07431919231453L1218.3150198460505 331.07431919231453L1218.691525856688 357.1034347277197L1248.8622075091055 357.1034347277197L1248.8622075091055 369.02612506457353L1218.691525856688 369.02612506457353L1218.691525856688 424.5231110325395Q1218.691525856688 434.8142753232976 1219.3190358744173 438.9809418410191Q1219.9465458921463 443.1225079580315 1222.029879151007 444.4026283941989Q1224.1132124098679 445.65764842965723 1229.1583929524102 445.65764842965723L1229.1583929524102 445.65764842965723Q1234.0529710906976 445.65764842965723 1239.9264648566425 444.4026283941989Q1245.7999586225872 443.1225079580315 1249.0379103140697 441.691785117609L1249.0379103140697 441.691785117609L1251.7487535906596 449.8243149473788Q1247.406384267974 453.0622666388612 1237.742729994945 456.14961592608864Q1228.079075721916 459.2118648126069 1220.1222486971103 459.2118648126069L1220.1222486971103 459.2118648126069ZM1272.5318853778492 447.11347167078884L1272.5318853778492 322.59038375261645L1257.3461429488036 320.6074520965923L1257.3461429488036 312.82632787675084L1286.8140133813645 309.3875729795951L1287.1654189912929 309.3875729795951L1291.1563827040502 312.09841625618503L1291.1563827040502 354.0411858412014L1290.4284710834843 369.402631075211Q1296.2015632465925 364.1566473269953 1306.3421251330956 359.46287239438124Q1316.4575866188895 354.74399706105805 1326.7487509096475 354.74399706105805L1326.7487509096475 354.74399706105805Q1338.1443328316088 354.74399706105805 1344.4696338103188 359.0863663837438Q1350.7949347890287 363.4287357064295 1353.3300752606544 372.3644783588926Q1355.840115331571 381.32532141206485 1355.840115331571 396.51106384111023L1355.840115331571 396.51106384111023L1355.840115331571 446.91266846511553L1368.4907172889905 448.54419451121134L1368.4907172889905 457.40463596154694L1325.3180280692252 457.40463596154694L1325.3180280692252 448.54419451121134L1337.065015601115 446.91266846511553L1337.065015601115 396.3102606354369Q1337.065015601115 385.6676907347505 1335.6091923599831 379.5933937631324Q1334.1533691188517 373.5441971922234 1330.1875058068033 370.55724950783264Q1326.221642494755 367.59540222415103 1318.2648154699493 367.59540222415103L1318.2648154699493 367.59540222415103Q1311.7638116862756 367.59540222415103 1304.3340930763625 370.83335391563344Q1296.9294748671584 374.09640600782507 1291.3320855090144 378.43877533051074L1291.3320855090144 378.43877533051074L1291.3320855090144 446.91266846511553L1303.8069846614699 448.54419451121134L1303.8069846614699 457.40463596154694L1261.6885122714896 457.40463596154694L1261.6885122714896 448.54419451121134L1272.5318853778492 447.11347167078884Z " fill="hsl(184, 91%, 17%)" transform="matrix(0.6393905028020264,0,0,0.6393905028020263,0,54.22623283475025)"/></g></svg>